<svg width="16" height="16" viewBox="0 0 16 16" fill="none" xmlns="http://www.w3.org/2000/svg">
<path fill-rule="evenodd" clip-rule="evenodd" d="M16 8C16 3.592 12.408 0 8 0C3.584 0 0 3.592 0 8C0 12.416 3.584 16 8 16C12.408 16 16 12.416 16 8ZM6.224 12.296L3.496 4.976C3.936 4.96 4.432 4.912 4.432 4.912C4.832 4.864 4.784 4.008 4.384 4.024C4.384 4.024 3.224 4.112 2.488 4.112C2.344 4.112 2.192 4.112 2.024 4.104C3.296 2.152 5.496 0.888 8 0.888C9.864 0.888 11.56 1.584 12.84 2.76C12.296 2.672 11.52 3.072 11.52 4.024C11.52 4.54239 11.796 4.98717 12.1064 5.48725L12.1065 5.48736L12.1066 5.48754C12.1506 5.55846 12.1953 5.63049 12.24 5.704C12.52 6.192 12.68 6.792 12.68 7.672C12.68 8.864 11.56 11.672 11.56 11.672L9.136 4.976C9.568 4.96 9.792 4.84 9.792 4.84C10.192 4.8 10.144 3.84 9.744 3.864C9.744 3.864 8.592 3.96 7.84 3.96C7.144 3.96 5.976 3.864 5.976 3.864C5.576 3.84 5.528 4.824 5.928 4.84L6.664 4.904L7.672 7.632L6.224 12.296ZM13.9455 7.95353L13.928 8C13.3483 9.52618 12.773 11.0655 12.1988 12.6017L12.1979 12.6041L12.1959 12.6092C11.9945 13.1481 11.7933 13.6866 11.592 14.224C13.728 12.992 15.112 10.632 15.112 8C15.112 6.768 14.832 5.632 14.272 4.6C14.5127 6.44793 14.143 7.42925 13.9455 7.95353ZM4.88 14.472C2.496 13.32 0.888 10.824 0.888 8C0.888 6.96 1.072 6.016 1.464 5.128L2.18287 7.098L2.18303 7.09845C3.07966 9.55604 3.97734 12.0165 4.88 14.472ZM10.168 14.752L8.104 9.168C7.72371 10.2899 7.3406 11.4117 6.95634 12.5369C6.69391 13.3054 6.43096 14.0754 6.168 14.848C6.744 15.024 7.368 15.112 8 15.112C8.76 15.112 9.48 14.984 10.168 14.752Z" fill="white"/>
</svg>
